<?xml version="1.0" standalone="no"?>
<!DOCTYPE svg PUBLIC "-//W3C//DTD SVG 20010904//EN"
 "http://www.w3.org/TR/2001/REC-SVG-20010904/DTD/svg10.dtd">
<svg version="1.0" xmlns="http://www.w3.org/2000/svg"
 width="512.000000pt" height="512.000000pt" viewBox="0 0 512.000000 512.000000"
 preserveAspectRatio="xMidYMid meet">
<metadata>
Created by potrace 1.16, written by Peter Selinger 2001-2019
</metadata>
<g transform="translate(0.000000,512.000000) scale(0.100000,-0.100000)"
fill="#E9ECF2" stroke="none">
<path d="M2420 4434 c-19 -2 -78 -9 -130 -15 -120 -14 -329 -67 -442 -113
-132 -53 -215 -98 -345 -185 -308 -206 -565 -533 -676 -861 -31 -92 -61 -233
-55 -264 4 -19 1 -22 -18 -18 -16 3 -27 -4 -39 -22 -20 -30 -12 -59 31 -117
22 -30 24 -42 24 -145 0 -144 26 -297 69 -408 21 -54 21 -20 0 120 -40 269
-26 514 47 809 48 195 113 326 249 500 206 265 578 513 914 611 421 122 764
107 1155 -51 231 -93 444 -238 665 -451 72 -69 131 -123 131 -119 0 5 -17 29
-37 54 -274 335 -677 577 -1085 651 -108 20 -376 34 -458 24z"/>
<path d="M2734 4311 c-78 -20 -72 -34 31 -66 81 -24 125 -51 125 -76 0 -6 -8
-8 -17 -5 -315 92 -659 79 -960 -37 -88 -34 -253 -113 -253 -121 0 -3 38 13
84 35 100 47 230 90 346 115 105 23 372 26 465 5 184 -40 384 -151 536 -298
90 -86 244 -265 268 -311 l12 -23 -27 18 c-22 14 -53 19 -147 22 -114 3 -118
4 -115 25 3 20 8 21 76 18 58 -2 73 0 70 11 -4 16 -139 136 -225 199 -88 65
-239 140 -377 187 -65 23 -123 41 -130 41 -6 -1 31 -16 81 -35 51 -18 128 -52
170 -75 105 -56 286 -178 352 -237 l55 -48 -50 -7 -49 -7 -65 64 c-231 226
-520 330 -825 296 -139 -16 -230 -43 -372 -111 -147 -70 -232 -129 -333 -230
-331 -331 -446 -798 -299 -1216 61 -176 139 -304 313 -520 39 -48 4 -36 -50
17 -115 113 -235 283 -305 434 -57 124 -78 203 -114 435 -22 137 -35 149 -35
33 0 -347 193 -705 560 -1038 119 -107 190 -156 300 -205 52 -23 101 -48 108
-55 8 -7 18 -45 23 -86 9 -73 47 -170 89 -230 12 -16 18 -29 13 -29 -22 0
-204 102 -285 160 -106 75 -270 229 -364 342 -198 237 -382 595 -438 851 -8
34 -14 52 -15 41 -2 -33 44 -202 74 -280 115 -289 308 -586 515 -793 202 -202
452 -348 723 -421 l72 -19 -85 0 c-49 0 -114 8 -152 18 -38 9 -68 16 -68 14 0
-12 160 -76 243 -97 151 -39 253 -49 437 -43 255 10 448 59 697 177 298 142
492 301 643 529 58 87 124 230 149 320 20 73 21 109 2 58 -126 -331 -290 -560
-517 -719 -86 -60 -183 -113 -192 -104 -3 3 0 6 6 6 12 0 55 87 71 145 9 31
22 47 61 74 54 36 215 194 232 226 6 11 -23 -12 -63 -51 -91 -87 -188 -168
-194 -162 -16 16 24 80 98 157 74 79 167 201 167 221 0 13 -51 30 -74 24 -22
-5 -46 -40 -46 -67 0 -15 -53 -126 -72 -151 -13 -17 -14 -13 -5 42 5 34 12 60
16 58 3 -2 5 77 3 176 -3 141 0 183 10 189 7 5 36 9 65 9 42 0 55 -4 67 -22
23 -33 20 -38 -22 -38 -50 0 -82 -29 -82 -75 0 -58 17 -65 146 -65 109 0 116
1 139 25 48 47 20 128 -45 127 -3 0 -16 -3 -30 -7 -14 -3 -20 -3 -14 2 19 14
50 83 82 183 80 250 82 569 7 871 -28 111 -49 168 -105 280 -23 44 -40 83 -38
85 9 8 85 -107 135 -201 130 -250 220 -670 193 -905 -9 -77 -43 -228 -57 -255
-3 -5 1 -3 10 5 18 17 60 137 83 237 8 39 18 143 21 246 3 97 8 177 10 177 3
0 16 -9 30 -20 15 -11 28 -18 30 -16 9 8 -28 248 -52 342 -57 219 -229 542
-284 532 -9 -2 -30 15 -52 42 -71 90 -294 283 -436 378 -83 56 -252 144 -338
176 -169 62 -365 97 -441 77z m426 -262 c117 -61 236 -141 354 -238 102 -85
70 -72 -41 16 -161 128 -346 235 -523 303 -19 7 -39 17 -45 22 -23 21 149 -49
255 -103z m-813 -88 c29 -4 56 -10 59 -14 7 -7 -72 -245 -87 -263 -7 -8 -26
-7 -72 3 -34 8 -79 13 -100 11 -36 -3 -38 -2 -46 32 -40 156 -53 212 -48 216
18 19 204 28 294 15z m-308 -61 c21 -71 49 -209 43 -214 -3 -3 -13 -6 -22 -6
-12 0 -25 28 -50 113 -18 61 -35 117 -38 124 -2 6 7 13 20 16 13 2 26 5 29 6
3 0 11 -17 18 -39z m411 21 c0 -41 -84 -268 -96 -261 -12 7 -10 14 38 158 38
113 58 149 58 103z m136 -36 c87 -42 215 -134 259 -186 l20 -24 -23 19 c-27
24 -63 31 -72 15 -4 -6 -24 -11 -44 -12 -22 -1 -36 -6 -36 -14 0 -7 -5 -13
-11 -13 -5 0 -7 5 -4 10 4 7 -2 9 -17 6 -23 -5 -66 -13 -123 -23 -16 -2 -37
-7 -45 -11 -8 -3 -24 -7 -35 -8 -11 -1 -26 -2 -33 -3 -7 0 -10 -6 -6 -12 4 -7
-1 -7 -15 1 -15 7 -19 15 -13 23 4 7 9 23 10 36 0 13 7 28 14 32 7 5 10 9 6 9
-3 0 7 39 23 88 17 48 32 93 34 100 6 18 10 16 111 -33z m-601 -91 l37 -120
-53 -51 -53 -50 -120 -13 c-160 -16 -190 -24 -229 -65 l-33 -34 -62 41 c-34
22 -62 44 -62 48 0 32 190 196 309 265 54 32 223 107 227 102 1 -1 19 -56 39
-123z m1364 50 c68 -61 83 -90 74 -149 -5 -38 -2 -51 15 -75 l22 -29 -37 -12
c-34 -11 -38 -10 -52 12 -9 13 -45 60 -81 104 -72 88 -100 126 -100 136 0 3 9
18 21 33 33 42 76 36 138 -20z m245 -166 c20 -29 20 -41 -1 -67 -13 -15 -33
-22 -68 -25 -27 -3 -42 -2 -32 1 18 5 18 6 -2 19 -46 33 -13 94 50 94 28 0 42
-6 53 -22z m-1312 -33 c55 -19 59 -23 51 -54 -6 -23 -6 -23 -189 -19 -101 1
-184 6 -184 9 0 16 55 54 102 71 61 22 144 19 220 -7z m133 -55 l30 -20 -52 0
c-38 0 -53 4 -53 13 0 33 32 36 75 7z m1307 -9 c36 -29 78 -113 76 -152 -1
-19 2 -42 7 -52 7 -17 -1 -18 -163 -15 l-171 3 -18 39 c-9 22 -30 56 -44 76
l-27 38 84 4 c82 4 86 6 122 41 43 43 93 50 134 18z m-1655 -27 c-3 -3 -12 -4
-19 -1 -8 3 -5 6 6 6 11 1 17 -2 13 -5z m1098 0 c32 -12 -7 -24 -81 -24 -39 0
-99 -3 -133 -6 -55 -6 -59 -8 -42 -20 27 -20 35 -61 16 -90 l-15 -24 -326 0
-325 0 -24 25 c-16 15 -25 36 -25 55 0 35 -19 47 -49 30 -19 -10 -21 -20 -21
-105 0 -88 -1 -95 -20 -95 -18 0 -20 7 -20 75 l0 75 -30 0 c-24 0 -33 -6 -40
-26 -14 -35 -14 -35 17 -32 26 3 28 0 33 -44 6 -47 6 -48 -23 -48 -18 0 -39
-10 -58 -29 l-29 -29 0 -537 c0 -351 -4 -543 -10 -556 -14 -26 -43 -25 -213 8
-168 31 -191 46 -207 132 -6 30 -10 235 -10 465 0 537 -17 501 253 540 93 14
171 26 173 29 3 2 7 28 11 56 7 58 36 109 73 128 15 8 65 13 125 13 90 0 175
4 600 29 171 10 379 13 400 5z m-1165 -22 c-42 -20 -80 -75 -80 -112 0 -55
-24 -68 -155 -87 -117 -16 -122 -16 -160 3 -46 22 -53 45 -31 97 24 58 53 70
231 93 88 12 176 22 195 23 l35 1 -35 -18z m-540 -48 c60 -40 70 -51 70 -76 0
-33 6 -35 -97 34 -66 44 -72 50 -61 68 7 11 14 20 16 20 1 0 34 -21 72 -46z
m-104 -41 c-4 -10 -1 -13 13 -8 11 3 22 2 25 -3 6 -10 -51 -9 -60 1 -10 10 5
39 17 32 6 -4 8 -14 5 -22z m111 -81 c-29 -4 -50 12 -55 41 -3 15 3 14 39 -10
42 -28 42 -28 16 -31z m1981 -31 c4 -12 -46 -13 -339 -8 -189 4 -346 7 -349 8
-19 8 187 15 414 15 222 -1 270 -3 274 -15z m395 -8 c4 -2 7 -11 7 -19 0 -14
-17 -15 -130 -9 -79 5 -130 4 -130 -2 0 -5 12 -25 26 -44 70 -91 126 -263 140
-426 l7 -83 136 0 c93 0 141 -4 149 -12 7 -7 12 -30 12 -53 0 -23 -5 -46 -12
-53 -8 -8 -57 -12 -154 -12 l-142 0 -11 -74 c-11 -77 -45 -181 -62 -192 -6 -3
-17 2 -25 12 -47 60 -45 43 -53 456 -8 428 -10 439 -69 502 l-27 28 165 -7
c91 -4 168 -9 173 -12z m-485 -32 c109 -7 114 -8 145 -39 l32 -32 6 -363 c4
-199 5 -365 2 -369 -2 -5 -12 -8 -23 -8 -17 0 -18 17 -22 318 -4 347 -8 372
-64 409 -26 17 -64 18 -619 18 -668 0 -629 5 -666 -80 -18 -41 -19 -70 -18
-512 l1 -468 -33 -17 c-44 -23 -71 -6 -81 48 -4 22 -7 258 -7 525 -1 459 0
488 17 510 17 20 32 23 143 31 68 5 189 15 269 22 159 15 732 19 918 7z m542
-128 c27 -74 69 -244 70 -278 0 -12 -65 -14 -76 -2 -4 4 -17 7 -29 7 -13 0
-27 10 -35 25 -17 31 -28 32 -40 3 -8 -20 -9 -19 -9 13 -1 36 -27 197 -37 231
-4 12 11 26 53 52 32 19 61 35 65 35 3 1 20 -38 38 -86z m-511 13 c57 -27 59
-35 66 -373 l6 -313 -160 0 -161 0 -1 188 c0 103 -2 196 -4 207 -10 51 -2 55
126 55 l119 0 0 -79 c0 -92 2 -91 -106 -91 l-74 0 0 -114 c0 -63 3 -121 6
-130 5 -13 24 -16 100 -16 l94 0 0 314 c0 268 -2 315 -15 326 -23 19 -1148 21
-1167 2 -10 -10 -13 -90 -13 -370 l0 -357 635 4 c686 4 700 3 751 -48 31 -32
52 -95 47 -149 l-3 -37 -17 31 c-9 17 -30 39 -45 50 -27 17 -54 18 -533 15
-561 -3 -539 -1 -583 -71 -22 -35 -22 -39 -22 -501 0 -349 -3 -462 -11 -450
-8 11 -13 161 -18 481 -6 533 -5 479 -14 460 -4 -8 -5 -230 -2 -493 5 -459 6
-479 24 -493 36 -26 510 -13 768 21 149 19 223 60 265 146 29 61 39 105 12 54
-55 -104 -134 -149 -282 -165 -106 -11 -490 -30 -609 -30 l-78 0 0 70 0 70
198 0 c279 1 487 14 540 35 113 46 192 228 192 444 0 102 -20 168 -65 211
l-36 35 -262 0 -262 0 -47 -27 c-35 -21 -53 -41 -72 -80 -33 -70 -57 -192 -59
-303 -3 -156 38 -195 206 -195 119 0 173 13 220 51 85 70 141 271 119 423 -13
85 -10 96 17 96 32 0 46 -55 46 -180 0 -129 -22 -222 -76 -319 -17 -29 -28
-55 -26 -57 2 -2 19 6 38 18 72 48 139 239 139 400 1 58 3 69 12 54 19 -34 4
-220 -27 -316 -37 -117 -64 -156 -130 -186 -94 -43 -174 -55 -427 -61 l-238
-6 0 236 c0 357 21 516 75 567 l27 25 419 3 c290 2 432 -1 461 -9 61 -16 112
-71 133 -144 24 -80 17 -312 -13 -440 -79 -339 -169 -438 -432 -474 -119 -17
-379 -32 -580 -34 -214 -2 -235 4 -277 82 l-23 44 0 450 c0 429 1 453 20 491
31 65 74 87 183 96 50 5 303 11 561 14 259 4 472 9 475 12 20 20 -80 24 -617
24 -567 0 -594 -1 -631 -19 -21 -11 -52 -36 -70 -56 l-32 -36 3 444 c3 420 4
446 22 466 18 19 31 21 225 24 360 6 944 -4 970 -17z m-921 -68 l3 -28 -100 0
-101 0 0 30 0 31 98 -3 97 -3 3 -27z m900 -41 l3 -68 -113 3 -113 3 -3 68 -3
68 113 -3 113 -3 3 -68z m-316 -13 c16 -8 36 -30 43 -47 34 -82 25 -355 -13
-406 -44 -59 -67 -64 -274 -63 -131 1 -197 5 -215 14 -63 31 -81 93 -82 278 0
128 10 185 38 214 18 18 38 22 124 27 155 10 343 2 379 -17z m-607 -14 c4 -6
-31 -10 -99 -10 -59 0 -108 4 -111 10 -4 6 31 10 99 10 59 0 108 -4 111 -10z
m14 -169 c18 -32 -9 -54 -72 -59 -77 -6 -124 4 -132 29 -12 38 11 49 106 49
76 0 90 -3 98 -19z m-995 -107 c12 -12 16 -38 16 -114 0 -91 -2 -100 -22 -114
-31 -22 -84 -20 -108 4 -17 17 -20 33 -20 109 0 85 1 91 26 110 32 25 86 27
108 5z m942 -7 c23 -20 28 -34 32 -84 4 -56 2 -63 -25 -93 -33 -37 -78 -45
-109 -19 -23 19 -44 72 -43 106 1 20 4 15 10 -17 10 -51 46 -90 84 -90 38 0
75 53 75 107 0 36 -6 50 -29 74 -16 16 -39 29 -51 29 -23 0 -70 -41 -70 -61 0
-7 -3 -10 -6 -7 -7 8 15 50 35 65 25 20 68 15 97 -10z m-19 -29 c43 -41 17
-148 -37 -148 -27 0 -60 47 -60 85 0 36 33 85 58 85 8 0 26 -10 39 -22z m551
-275 c-114 -2 -303 -2 -420 0 -117 1 -24 2 207 2 231 0 327 -1 213 -2z m-1548
-66 c0 -7 -26 -27 -59 -45 -65 -36 -71 -37 -71 -19 0 11 104 76 123 77 4 0 7
-6 7 -13z m2398 -69 c3 -15 -4 -18 -37 -18 -35 0 -41 3 -41 21 0 17 5 20 37
17 27 -2 39 -8 41 -20z m-1575 -53 c-3 -9 -8 -14 -10 -11 -3 3 -2 9 2 15 9 16
15 13 8 -4z m1593 -13 c40 -28 11 -82 -45 -82 -42 0 -61 14 -61 45 0 12 5 26
12 33 13 13 77 16 94 4z m-1676 -187 c30 -15 30 -16 30 -107 0 -80 -3 -95 -22
-115 -32 -35 -91 -32 -129 6 -54 55 -38 179 29 215 35 19 56 20 92 1z m939
-15 c42 -121 8 -308 -74 -416 -38 -50 -126 -87 -207 -88 -114 -1 -152 48 -142
179 12 158 41 258 88 304 44 43 70 49 208 50 l116 1 11 -30z m-1296 -30 c110
-24 157 -38 157 -48 0 -8 -7 -11 -17 -8 -10 3 -70 17 -133 31 -63 14 -133 29
-155 35 -53 13 -54 13 -51 -7 2 -14 32 -25 142 -52 76 -18 156 -37 177 -43 27
-6 37 -14 37 -29 0 -15 -5 -19 -17 -15 -10 2 -83 21 -163 41 -193 48 -190 46
-190 93 0 46 5 53 34 43 11 -4 92 -23 179 -41z m2227 0 c8 -14 8 -26 0 -40 -9
-17 -22 -20 -93 -22 -88 -1 -118 -1 -128 1 -16 3 -18 36 -4 57 15 23 21 24
115 24 89 0 100 -2 110 -20z m-723 -57 c-3 -10 -5 -4 -5 12 0 17 2 24 5 18 2
-7 2 -21 0 -30z m-1232 -175 c22 -5 54 -7 72 -4 30 4 33 2 38 -27 3 -18 5
-117 3 -222 l-3 -190 -22 70 c-12 39 -29 105 -38 147 -21 100 -45 125 -162
168 -154 55 -169 58 -212 34 l-38 -21 -44 29 c-64 43 -79 64 -79 113 l0 42
223 -64 c122 -36 240 -69 262 -75z m1300 -10 c-17 -87 -47 -173 -69 -204 -8
-10 -2 17 14 62 16 44 33 107 39 140 25 144 25 142 29 111 2 -16 -4 -65 -13
-109z m-1460 -77 c44 -16 50 -21 53 -49 2 -18 1 -32 -2 -32 -7 0 -167 59 -178
66 -17 11 14 34 46 33 17 0 54 -8 81 -18z m159 -93 c3 -18 10 -66 16 -106 12
-87 19 -102 106 -224 61 -86 64 -93 44 -96 -47 -7 -115 77 -161 198 -24 64
-40 260 -21 260 6 0 13 -15 16 -32z m724 -489 c356 -2 326 -14 -51 -22 -236
-5 -248 -4 -270 15 -18 16 -19 19 -4 14 10 -3 157 -7 325 -7z"/>
<path d="M2330 3501 c-90 -6 -95 -7 -98 -29 -2 -13 4 -32 14 -43 16 -18 34
-19 334 -19 281 0 319 2 324 16 11 28 6 50 -12 67 -16 15 -46 17 -243 15 -123
-1 -267 -4 -319 -7z"/>
<path d="M1775 3065 c-55 -8 -117 -19 -138 -25 -66 -19 -68 -31 -65 -425 3
-329 4 -345 23 -364 22 -21 305 -87 331 -77 12 4 14 77 14 444 0 327 -3 441
-12 450 -14 14 -23 14 -153 -3z m133 -97 l3 -58 -56 0 -55 0 0 61 0 60 53 -3
52 -3 3 -57z m-258 -13 c58 -30 60 -38 60 -291 0 -127 -3 -251 -6 -275 -5 -40
-10 -46 -46 -61 -22 -10 -44 -15 -49 -12 -10 6 -12 637 -2 647 9 9 10 9 43 -8z
m230 -85 c0 -5 -20 -10 -45 -10 -25 0 -45 5 -45 10 0 6 20 10 45 10 25 0 45
-4 45 -10z m5 -45 c0 -5 -21 -11 -47 -13 -39 -3 -48 0 -48 13 0 13 9 16 48 13
26 -2 47 -7 47 -13z m3 -357 c3 -15 -4 -18 -47 -18 -27 0 -53 5 -56 10 -12 20
8 31 53 28 35 -2 48 -7 50 -20z m-20 -74 c13 -4 22 -14 22 -25 0 -15 -7 -19
-32 -19 -52 0 -78 11 -78 31 0 15 7 19 33 19 17 0 42 -3 55 -6z m22 -130 c0
-21 -4 -24 -39 -24 -51 0 -71 8 -71 29 0 25 3 26 59 23 46 -4 51 -6 51 -28z"/>
<path d="M1822 2978 c3 -29 6 -33 33 -33 27 0 30 3 30 30 0 27 -4 30 -33 33
-32 3 -33 2 -30 -30z"/>
<path d="M3640 2790 c0 -38 4 -70 8 -70 40 0 59 110 23 130 -11 5 -22 10 -25
10 -3 0 -6 -31 -6 -70z"/>
<path d="M3770 2680 c-16 -30 15 -40 133 -40 109 0 134 9 121 44 -5 13 -24 16
-125 16 -107 0 -119 -2 -129 -20z"/>
<path d="M3646 2517 c-5 -15 -6 -31 -2 -34 11 -11 18 5 14 34 l-4 28 -8 -28z"/>
<path d="M3167 2913 c-4 -3 -7 -28 -7 -54 l0 -47 78 -4 c111 -5 122 0 122 62
l0 50 -93 0 c-52 0 -97 -3 -100 -7z m170 -29 c3 -8 1 -26 -6 -40 -10 -23 -15
-25 -78 -22 l-68 3 -3 38 -3 37 76 0 c59 0 77 -3 82 -16z"/>
<path d="M2834 2998 c-5 -8 8 -10 47 -5 30 3 63 1 73 -5 32 -18 46 -72 46
-175 0 -121 -15 -158 -80 -191 l-45 -24 50 7 c28 4 58 11 68 17 28 15 45 65
53 159 8 104 -8 192 -39 214 -26 18 -162 21 -173 3z"/>
<path d="M2596 2888 c-22 -105 -16 -195 16 -231 l19 -22 -12 25 c-18 37 -25
216 -9 235 8 10 9 15 1 15 -6 0 -13 -10 -15 -22z"/>
<path d="M2290 2860 c0 -6 30 -10 70 -10 40 0 70 4 70 10 0 6 -30 10 -70 10
-40 0 -70 -4 -70 -10z"/>
<path d="M2233 4073 c20 -2 54 -2 75 0 20 2 3 4 -38 4 -41 0 -58 -2 -37 -4z"/>
<path d="M2123 4063 c9 -2 25 -2 35 0 9 3 1 5 -18 5 -19 0 -27 -2 -17 -5z"/>
<path d="M2393 4063 c9 -2 23 -2 30 0 6 3 -1 5 -18 5 -16 0 -22 -2 -12 -5z"/>
<path d="M2053 4053 c9 -2 23 -2 30 0 6 3 -1 5 -18 5 -16 0 -22 -2 -12 -5z"/>
<path d="M2448 4053 c6 -2 18 -2 25 0 6 3 1 5 -13 5 -14 0 -19 -2 -12 -5z"/>
<path d="M1998 4043 c6 -2 18 -2 25 0 6 3 1 5 -13 5 -14 0 -19 -2 -12 -5z"/>
<path d="M1958 4033 c7 -3 16 -2 19 1 4 3 -2 6 -13 5 -11 0 -14 -3 -6 -6z"/>
<path d="M1918 4023 c7 -3 16 -2 19 1 4 3 -2 6 -13 5 -11 0 -14 -3 -6 -6z"/>
<path d="M1106 3527 c-37 -48 -60 -107 -47 -120 8 -8 11 -6 11 5 0 9 15 46 34
82 19 36 33 66 31 66 -2 0 -15 -15 -29 -33z"/>
<path d="M1156 3330 c-29 -54 -86 -214 -85 -239 0 -9 13 23 29 71 16 47 43
114 60 148 38 75 34 91 -4 20z"/>
<path d="M4375 3050 c13 -59 43 -282 50 -368 4 -56 11 -90 16 -85 21 21 -29
383 -62 457 -9 19 -9 18 -4 -4z"/>
<path d="M1022 2960 c0 -14 2 -19 5 -12 2 6 2 18 0 25 -3 6 -5 1 -5 -13z"/>
<path d="M952 2655 c0 -16 2 -22 5 -12 2 9 2 23 0 30 -3 6 -5 -1 -5 -18z"/>
<path d="M4370 2565 c0 -156 -48 -400 -115 -591 -25 -68 -42 -124 -40 -124 3
0 19 27 35 61 41 80 85 217 110 340 25 122 38 343 21 353 -8 5 -11 -7 -11 -39z"/>
<path d="M700 2255 c0 -8 7 -15 15 -15 8 0 15 7 15 15 0 8 -7 15 -15 15 -8 0
-15 -7 -15 -15z"/>
<path d="M930 2191 c0 -40 61 -188 122 -294 90 -157 298 -430 458 -601 l55
-59 -105 74 c-58 41 -133 103 -168 138 -35 35 -66 61 -69 58 -9 -9 119 -158
209 -243 255 -239 595 -421 908 -485 128 -26 360 -35 498 -19 139 16 304 58
417 106 l90 38 215 5 c140 4 222 10 236 18 33 19 49 67 34 103 -7 17 -15 30
-19 30 -3 0 -14 7 -25 15 -17 13 -17 15 10 50 23 30 26 41 18 63 -9 25 -14 27
-69 30 -59 2 -61 1 -120 -46 -189 -155 -409 -260 -658 -314 -87 -19 -133 -22
-307 -22 -227 0 -324 14 -497 75 -313 109 -529 266 -759 549 -175 215 -360
527 -417 700 -11 32 -21 46 -36 48 -16 3 -21 -2 -21 -17z"/>
<path d="M825 2160 c20 -97 141 -361 208 -452 21 -29 30 -52 28 -71 -2 -20 6
-35 29 -57 33 -31 54 -36 79 -21 30 19 -40 128 -74 115 -24 -10 -142 202 -215
388 -50 125 -67 156 -55 98z"/>
<path d="M735 1940 c-41 -46 20 -105 66 -64 25 23 24 49 -3 68 -30 21 -41 20
-63 -4z"/>
<path d="M1625 1615 c-49 -48 -15 -135 53 -135 67 0 99 97 46 139 -35 28 -69
26 -99 -4z"/>
<path d="M1056 1481 c-18 -19 -18 -22 -2 -46 20 -30 39 -32 67 -4 18 18 19 23
6 42 -19 29 -49 32 -71 8z"/>
<path d="M1870 1465 c-18 -22 -1 -50 31 -50 20 0 24 5 24 30 0 23 -5 31 -21
33 -11 2 -27 -4 -34 -13z"/>
<path d="M1242 1314 c-40 -28 -16 -94 35 -94 23 0 53 29 53 51 0 42 -53 68
-88 43z"/>
<path d="M1346 1185 c-9 -24 4 -45 29 -45 13 0 25 7 29 15 9 24 -4 45 -29 45
-13 0 -25 -7 -29 -15z"/>
</g>
</svg>